<?xml version="1.0" encoding="utf-8"?>
<!-- Generator: Adobe Illustrator 25.1.0, SVG Export Plug-In . SVG Version: 6.00 Build 0)  -->
<svg version="1.1" id="Capa_1" xmlns="http://www.w3.org/2000/svg" xmlns:xlink="http://www.w3.org/1999/xlink" x="0px" y="0px"
	 viewBox="0 0 512 512" style="enable-background:new 0 0 512 512;" xml:space="preserve">
<style type="text/css">
	.st0{fill:#061127;}
</style>
<g>
	<path class="st0" d="M256,8.4L0,199.6v304h512v-304L256,8.4z M185.2,144.8c7.5-13.7,17.9-24.1,31-30.9c13.1-6.9,28-10.4,45-10.4
		c14.3,0,27,2.8,38.1,8.3c11.1,5.6,19.6,13.5,25.5,23.7c5.8,10.3,8.8,21.5,8.8,33.6c0,14.5-4.5,27.5-13.4,39.2
		c-11.2,14.8-25.5,22.1-43,22.1c-4.7,0-8.2-0.8-10.6-2.4c-2.3-1.7-4-4.1-4.8-7.3c-6.6,6.5-14.4,9.8-23.1,9.8
		c-9.4,0-17.2-3.3-23.5-9.7c-6.2-6.5-9.3-15.2-9.3-25.9c0-13.4,3.7-25.5,11.2-36.5c9.1-13.4,20.7-20.1,34.9-20.1
		c10.1,0,17.6,3.9,22.4,11.6l2.1-9.5H299l-12.9,61c-0.8,3.9-1.2,6.3-1.2,7.5c0,1.5,0.3,2.4,1,3.2c0.6,0.7,1.4,1.1,2.3,1.1
		c2.8,0,6.3-1.6,10.6-5c5.8-4.3,10.5-10.1,14-17.3c3.6-7.3,5.4-14.8,5.4-22.6c0-13.9-5-25.6-15.1-35.1
		c-10.1-9.3-24.3-14.1-42.3-14.1c-15.4,0-28.4,3.1-39.1,9.5c-10.7,6.2-18.8,15.1-24.2,26.5c-5.4,11.3-8.1,23.2-8.1,35.5
		c0,11.9,3.1,22.9,9.1,32.7c6.1,9.9,14.5,17,25.5,21.5c10.9,4.5,23.5,6.7,37.5,6.7c13.5,0,25.2-1.9,35-5.7s17.6-9.4,23.6-17h18.1
		c-5.7,11.5-14.3,20.5-26.1,27.1c-13.5,7.5-29.9,11.2-49.2,11.2c-18.8,0-34.9-3.1-48.6-9.5c-13.7-6.3-23.7-15.7-30.4-28
		c-6.6-12.3-9.9-25.8-9.9-40.3C173.9,173.5,177.6,158.6,185.2,144.8z M18.1,205.6L207,332.3L18.1,478.5V205.6z M32.4,488.2
		l223.6-173l223.6,173.1H32.4V488.2z M493.9,478.5L305.1,332.3L494,205.6L493.9,478.5L493.9,478.5z M265.3,158.8
		c3,3.4,4.5,8.3,4.5,14.8c0,5.7-1.1,11.9-3.3,18.5c-2.2,6.7-4.8,11.8-7.8,15.2c-2,2.4-4.2,4.2-6.4,5.3c-2.8,1.6-5.8,2.4-9.1,2.4
		c-4.3,0-7.9-1.7-10.9-5.1c-2.9-3.4-4.3-8.7-4.3-15.9c0-5.4,1-11.6,3.1-18.6s5.2-12.3,9.4-16.2c4.2-3.8,8.7-5.7,13.5-5.7
		C258.5,153.6,262.3,155.3,265.3,158.8z"/>
</g>
</svg>
