<?xml version="1.0" encoding="utf-8"?>
<!-- Generator: Adobe Illustrator 21.0.2, SVG Export Plug-In . SVG Version: 6.00 Build 0)  -->
<svg version="1.1" id="Layer_1" xmlns="http://www.w3.org/2000/svg" xmlns:xlink="http://www.w3.org/1999/xlink" x="0px" y="0px"
	 viewBox="0 0 1514.4 526" style="enable-background:new 0 0 1514.4 526;" xml:space="preserve">
<style type="text/css">
	.st0{fill:#404255;stroke:#404255;stroke-miterlimit:10;}
	.st1{fill:#F2124B;}
	.st2{display:none;fill:#EF144C;}
	.st3{display:none;}
	.st4{display:inline;fill:#404255;}
	.st5{font-family:'Roboto-Regular';}
	.st6{font-size:32px;}
	.st7{display:inline;fill:none;stroke:#404255;stroke-miterlimit:10;}
</style>
<g id="Layer_1_3_">
	<g id="Layer_1_2_">
		<g id="Layer_1_1_">
			<g>
				<path class="st0" d="M652.3,143.1H687v218.3h-34.7V143.1L652.3,143.1z"/>
				<path class="st0" d="M727.8,143.1h34.6v218.3h-34.7V143.1H727.8z"/>
				<path class="st0" d="M803.1,222.7h34.6v138.5H803L803.1,222.7L803.1,222.7z"/>
				<path class="st0" d="M877.5,222.7h32.9v20.8h0.5c5-8.5,11.7-14.6,20.3-18.4c8.5-3.8,17.6-5.8,27.4-5.8c10.6,0,20.1,1.9,28.5,5.6
					c8.5,3.7,15.7,8.9,21.7,15.5c5.9,6.5,10.4,14.3,13.5,23.1c3.1,8.9,4.6,18.4,4.6,28.5c0,10.2-1.6,19.7-4.8,28.5
					c-3.4,8.9-7.8,16.6-13.7,23.1s-13,11.6-21.3,15.4c-8.2,3.7-17.3,5.6-27.1,5.6c-6.5,0-12.3-0.7-17.3-2c-5-1.4-9.4-3.1-13.3-5.2
					c-3.8-2.2-7.1-4.4-9.9-6.8c-2.7-2.4-4.8-4.8-6.6-7.1h-0.8v83.4h-34.7L877.5,222.7L877.5,222.7z M992.4,292.1
					c0-5.4-0.9-10.6-2.7-15.5c-1.9-5-4.6-9.4-8-13.3c-3.5-3.8-7.8-7-12.8-9.2c-5-2.3-10.7-3.5-17-3.5c-6.4,0-12.1,1.2-17,3.5
					c-5,2.3-9.2,5.4-12.8,9.2s-6.3,8.2-8,13.3c-1.9,5-2.7,10.2-2.7,15.5c0,5.4,0.9,10.6,2.7,15.5c1.9,5,4.6,9.4,8,13.3
					c3.6,3.8,7.8,7,12.8,9.2c5,2.3,10.7,3.5,17,3.5c6.4,0,12.1-1.2,17-3.5c5-2.3,9.2-5.4,12.8-9.2c3.6-3.8,6.3-8.2,8-13.3
					C991.4,302.5,992.4,297.4,992.4,292.1z"/>
				<path class="st0" d="M1133.2,261.1c-6.7-9.4-15.8-14.2-27.1-14.2c-4.6,0-9.2,1.2-13.5,3.5c-4.4,2.3-6.6,6-6.6,11.3
					c0,4.2,1.9,7.2,5.5,9.2c3.7,2,8.2,3.6,13.8,4.8c5.6,1.4,11.6,2.7,18,4.1s12.5,3.7,18,6.6c5.6,2.9,10.2,7.1,13.8,12.2
					c3.7,5.2,5.5,12.3,5.5,21.3c0,8.2-1.7,15.3-5.4,20.9c-3.6,5.8-8.2,10.3-13.8,13.7c-5.8,3.5-12.1,5.9-19.2,7.5
					s-14.3,2.3-21.3,2.3c-10.9,0-20.7-1.5-29.7-4.6c-9.1-3.1-17.2-8.7-24.1-16.7l23.1-21.7c4.4,5,9.2,9.1,14.3,12.2
					s11.3,4.8,18.6,4.8c2.5,0,5.1-0.3,7.8-0.8c2.7-0.5,5.2-1.5,7.5-2.9s4.1-3.1,5.6-5c1.4-2,2.2-4.3,2.2-7.1c0-4.8-1.9-8.5-5.5-10.7
					c-3.7-2.2-8.2-4.1-13.8-5.6c-5.6-1.4-11.6-2.8-18-4.1c-6.5-1.3-12.5-3.2-18-6c-5.6-2.8-10.2-6.7-13.8-11.7s-5.5-11.9-5.5-20.8
					c0-7.7,1.6-14.3,4.8-20.1c3.2-5.8,7.4-10.4,12.6-14c5.2-3.7,11.1-6.4,17.8-8c6.7-1.7,13.5-2.6,20.5-2.6c9.2,0,18.4,1.6,27.4,4.8
					c9,3.1,16.4,8.6,21.9,16.2L1133.2,261.1z"/>
				<path class="st0" d="M1215.1,301.7c1,10.3,5.1,18.5,12,24.3s15.2,8.7,25.1,8.8c8.7,0,16-1.7,21.8-5.3c5.9-3.6,11-8,15.5-13.3
					l24.7,18.9c-8.1,9.9-17.2,17.1-27.3,21.2c-10,4.2-20.6,6.3-31.5,6.2c-10.4,0-20.1-1.8-29.5-5.4c-9.3-3.5-17.2-8.5-23.9-14.8
					c-6.7-6.5-12-14-15.8-23c-4-9-5.9-18.9-5.8-29.9s2.1-21,6-29.9c4.1-8.9,9.3-16.6,16.1-22.9c6.8-6.4,14.8-11.1,24-14.6
					c9.3-3.4,19.1-5,29.5-5c9.7,0.1,18.4,1.8,26.5,5.2c7.9,3.5,14.7,8.3,20.4,14.7c5.7,6.5,9.9,14.3,13.2,23.5
					c3.1,9.4,4.7,20.1,4.6,32.2l-0.1,9.5L1215.1,301.7z M1286.1,276c-0.2-10.2-3.3-18.3-9.4-24.2c-6.1-5.9-14.7-8.8-25.7-8.9
					c-10.4,0-18.6,2.9-24.7,8.8s-9.9,13.9-11.2,24L1286.1,276z"/>
				<path class="st0" d="M526.7,303.8c1,10.3,5.1,18.5,12,24.3s15.2,8.7,25.1,8.8c8.7,0,16-1.7,21.8-5.3c5.9-3.6,11-8,15.5-13.3
					l24.7,18.9c-8.1,9.9-17.2,17.1-27.3,21.2c-10,4.2-20.6,6.3-31.5,6.2c-10.4,0-20.1-1.8-29.5-5.4c-9.3-3.5-17.2-8.5-23.9-14.8
					c-6.7-6.5-12-14-15.8-23c-4-9-5.9-18.9-5.8-29.9s2.1-21,6-29.9c4.1-8.9,9.3-16.6,16.1-22.9c6.8-6.4,14.8-11.1,24-14.6
					c9.3-3.4,19.1-5,29.5-5c9.7,0.1,18.4,1.8,26.5,5.2c7.9,3.5,14.7,8.3,20.4,14.7c5.7,6.5,9.9,14.3,13.2,23.5
					c3.1,9.4,4.7,20.1,4.6,32.2l-0.1,9.5L526.7,303.8z M597.7,283.3c-0.2-10.2-3.3-18.3-9.4-24.2c-6.1-5.9-14.7-8.8-25.7-8.9
					c-10.4,0-18.6,2.9-24.7,8.8c-6.1,5.9-9.9,13.9-11.2,24L597.7,283.3z"/>
			</g>
			<circle class="st1" cx="820.5" cy="174.2" r="28.5"/>
			<path class="st2" d="M422,272.2c0-3.9,1.4-7.2,4.3-9.9c2.9-2.7,6.3-4.1,10.3-4.1c3.9,0,7.2,1.4,10.2,4c2.9,2.7,4.4,5.9,4.4,9.9
				s-1.4,7.2-4.3,9.9c-2.9,2.8-6.3,4.1-10.3,4.1c-2,0-3.8-0.3-5.6-1.1c-1.9-0.8-3.4-1.7-4.7-2.9c-1.4-1.2-2.4-2.7-3.2-4.4
				C422.4,276,422,274.2,422,272.2z"/>
			<path class="st2" d="M422,316.3c0-3.9,1.4-7.2,4.3-9.9c2.9-2.8,6.3-4.1,10.3-4.1c3.9,0,7.2,1.4,10.2,4c2.9,2.7,4.4,5.9,4.4,9.9
				s-1.4,7.2-4.3,9.9c-2.9,2.8-6.3,4.1-10.3,4.1c-2,0-3.8-0.3-5.6-1.1c-1.7-0.8-3.4-1.7-4.7-2.9c-1.4-1.2-2.4-2.7-3.2-4.4
				C422.4,320.1,422,318.3,422,316.3z"/>
		</g>
	</g>
</g>
<g id="Layer_2">
	<g id="Layer_3">
		<path class="st1" d="M271.2,144.8c28.8-6.7,57.9-8.8,86.9-1.7c50.6,12.4,72.9,58.2,53.7,108.9c-14.2,37.6-39,67.5-68.9,93.2
			c-48.6,41.7-104.4,68.9-168,78.9c-10.5,1.7-21.2,1.5-33.6,2.3c15.1-5.8,28.8-10.6,42.2-16.2c28-11.8,53.7-27.5,77.6-46.2
			c29.4-23,54.5-49.8,72-83c10.9-20.6,18.6-42.5,15.9-66.3c-4.5-39.3-30.3-58.8-65.5-67.6C279.3,146.3,275.3,145.6,271.2,144.8z"/>
		<path class="st0" d="M215.2,369.7c-19.7,6.7-37.9,9.6-56.7,6c-30-5.8-44.3-30.5-36.4-62.8c6.4-26.1,21.1-47.4,39.7-66.2
			c29.2-29.5,63.4-50.3,104.7-58.1c1.2-0.2,2.3-0.4,3.5-0.5c0.6,0,1.1,0.2-0.1,0c-16.2,11-34.3,21.7-50.6,34.7
			c-24.9,19.9-44.4,44.5-53.8,75.6c-12.5,41.4,10,67.9,45.5,69.7C211.9,368,212.6,368.6,215.2,369.7z"/>
		<g class="st3">
			<text transform="matrix(1 0 0 1 958.1177 414.9061)" class="st4 st5 st6">Smart hotel cloud </text>
			<text transform="matrix(1 0 0 1 958.1177 414.9061)" class="st7 st5 st6">Smart hotel cloud </text>
		</g>
	</g>
</g>
</svg>
