<?xml version="1.0" encoding="utf-8"?>
<!-- Generator: Adobe Illustrator 21.0.2, SVG Export Plug-In . SVG Version: 6.00 Build 0)  -->
<svg version="1.1" id="Layer_1" xmlns="http://www.w3.org/2000/svg" xmlns:xlink="http://www.w3.org/1999/xlink" x="0px" y="0px"
	 viewBox="0 0 355 252" style="enable-background:new 0 0 355 252;" xml:space="preserve">
<style type="text/css">
	.st0{clip-path:url(#SVGID_2_);fill:url(#SVGID_3_);}
</style>
<polygon points="80.6,187.8 77.3,187.8 56.7,145 62.5,145 79,179.3 95.5,145 101.4,145 "/>
<path d="M107,187.8V145h24.6c4.2,0,7.4,1.1,9.8,3.2c2.4,2.1,3.6,5,3.6,8.7c0,3.1-0.9,5.7-2.8,8c-1.9,2.2-4.3,3.6-7.4,4.1l10.7,18.8
	h-5.9L128.9,169h-16.6v18.7H107z M112.3,164h18.9c2.7,0,4.7-0.6,6.1-1.8c1.4-1.2,2.1-2.9,2.1-5.2c0-2.2-0.7-4-2.1-5.2
	c-1.4-1.3-3.3-1.9-5.8-1.9h-19.2V164z"/>
<path d="M154.6,187.8V145h25.3c4.2,0,7.4,0.9,9.6,2.7c2.2,1.8,3.2,4.4,3.2,8c0,1.7-0.3,3.2-1,4.6c-0.7,1.3-1.6,2.4-2.9,3.3
	c2.3,1.3,4,2.9,5.1,4.8c1.2,1.9,1.7,4.1,1.7,6.6c0,4-1.3,7.1-3.9,9.4c-2.6,2.3-6.1,3.5-10.6,3.5H154.6z M159.9,182.8h22.4
	c2.4,0,4.4-0.7,5.8-2.1c1.4-1.4,2.1-3.4,2.1-5.9c0-2.4-0.7-4.4-2.1-5.8c-1.4-1.4-3.3-2.2-5.8-2.2h-22.4V182.8z M159.9,161.9h20.5
	c2.2,0,4-0.5,5.1-1.5c1.2-1,1.8-2.5,1.8-4.4c0-2-0.6-3.5-1.7-4.5c-1.2-1-2.9-1.5-5.2-1.5h-20.5V161.9z"/>
<path d="M225.2,188.9c-6.4,0-11.7-2.1-15.9-6.3c-4.2-4.2-6.3-9.6-6.3-16.1c0-6.5,2.1-11.9,6.3-16.1c4.2-4.2,9.5-6.3,15.8-6.3
	c6.4,0,11.7,2.1,15.9,6.4c4.2,4.2,6.3,9.6,6.3,16.1c0,6.5-2.1,11.9-6.3,16.1C236.9,186.8,231.6,188.9,225.2,188.9 M225.2,183.9
	c4.8,0,8.8-1.6,11.9-4.9c3.1-3.3,4.7-7.4,4.7-12.5c0-5.1-1.6-9.2-4.7-12.5c-3.1-3.3-7.1-4.9-12-4.9c-4.8,0-8.8,1.7-11.9,4.9
	c-3.1,3.3-4.7,7.5-4.7,12.5c0,5,1.6,9.2,4.7,12.5C216.4,182.2,220.4,183.9,225.2,183.9z"/>
<polygon points="272.3,187.8 269,187.8 248.4,145 254.2,145 270.7,179.3 287.2,145 293.1,145 "/>
<polygon points="60.8,221.2 60.8,209.7 56.7,209.7 56.7,208.5 66.3,208.5 66.3,209.7 62.2,209.7 62.2,221.2 "/>
<polygon points="76.7,208.5 78.1,208.5 78.1,214.1 85.5,214.1 85.5,208.5 86.9,208.5 86.9,221.2 85.5,221.2 85.5,215.3 78.1,215.3 
	78.1,221.2 76.7,221.2 "/>
<polygon points="97.9,221.2 97.9,208.5 106.1,208.5 106.1,209.7 99.3,209.7 99.3,214.1 105.8,214.1 105.8,215.3 99.3,215.3 
	99.3,219.9 106.1,219.9 106.1,221.2 "/>
<path d="M123,208.5c0.6,0,1.2,0.1,1.7,0.2c0.5,0.1,0.9,0.4,1.2,0.7c0.3,0.3,0.5,0.7,0.6,1.2c0.1,0.5,0.2,1,0.2,1.7
	c0,0.5,0,1-0.1,1.2c-0.1,0.5-0.2,0.8-0.4,1.1c-0.4,0.5-0.9,0.8-1.7,0.9c0.6,0.1,1.1,0.3,1.5,0.7c0.4,0.4,0.6,0.9,0.6,1.5v3.4h-1.5
	v-2.8c0-0.4,0-0.7-0.1-1c-0.1-0.3-0.2-0.5-0.4-0.7c-0.2-0.2-0.4-0.3-0.7-0.4c-0.3-0.1-0.6-0.1-1-0.1h-4.6v5H117v-12.7H123z
	 M123.1,209.7h-4.7v5.1h4.5c0.5,0,0.9,0,1.2-0.1c0.3-0.1,0.6-0.2,0.8-0.5c0.2-0.2,0.3-0.5,0.4-0.8c0.1-0.3,0.1-0.7,0.1-1V212
	c0-0.4,0-0.7-0.1-1c0-0.3-0.1-0.5-0.3-0.7c-0.2-0.2-0.4-0.3-0.8-0.4C123.8,209.8,123.5,209.7,123.1,209.7z"/>
<polygon points="137.9,221.2 137.9,208.5 140.4,208.5 144.9,219.4 149.4,208.5 151.8,208.5 151.8,221.2 150.4,221.2 150.4,209.6 
	145.6,221.2 144.2,221.2 139.4,209.6 139.3,221.2 "/>
<path d="M166.8,208.5h2l4.8,12.7l-1.5,0l-1-2.7h-6.4l-1,2.7l-1.5,0L166.8,208.5z M165.1,217.3h5.6l-2.8-7.6L165.1,217.3z"/>
<polygon points="184.1,208.5 185.5,208.5 185.5,219.9 191.9,219.9 191.9,221.2 184.1,221.2 "/>
<path d="M222,215h4c1.1,0,1.8-0.2,2-0.5c0.2-0.2,0.3-0.5,0.4-0.8c0.1-0.3,0.1-0.7,0.1-1.1c0-0.5,0-0.9-0.1-1.2
	c0-0.4-0.1-0.6-0.2-0.8c-0.1-0.2-0.3-0.4-0.6-0.5c-0.3-0.1-0.7-0.2-1.2-0.2H222V215z M222,216.3v4.9h-1.4v-12.7h6.4
	c1.2,0,2.1,0.4,2.5,1.2c0.2,0.3,0.3,0.7,0.4,1.2c0.1,0.5,0.1,1,0.1,1.5c0,0.6,0,1.2-0.1,1.6c-0.1,0.5-0.3,1-0.6,1.3
	c-0.2,0.3-0.6,0.6-1,0.7c-0.4,0.2-0.9,0.2-1.5,0.2H222z"/>
<path d="M244.5,208.5h2l4.8,12.7l-1.5,0l-1-2.7h-6.4l-1,2.7l-1.5,0L244.5,208.5z M242.8,217.3h5.6l-2.8-7.6L242.8,217.3z"/>
<path d="M267.7,208.5c0.6,0,1.2,0.1,1.7,0.2c0.5,0.1,0.9,0.4,1.2,0.7c0.3,0.3,0.5,0.7,0.6,1.2c0.1,0.5,0.2,1,0.2,1.7
	c0,0.5,0,1-0.1,1.2c-0.1,0.5-0.2,0.8-0.4,1.1c-0.4,0.5-0.9,0.8-1.7,0.9c0.6,0.1,1.1,0.3,1.5,0.7c0.4,0.4,0.6,0.9,0.6,1.5v3.4h-1.5
	v-2.8c0-0.4,0-0.7-0.1-1c-0.1-0.3-0.2-0.5-0.4-0.7c-0.2-0.2-0.4-0.3-0.7-0.4c-0.3-0.1-0.6-0.1-1-0.1h-4.6v5h-1.4v-12.7H267.7z
	 M267.7,209.7h-4.7v5.1h4.5c0.5,0,0.9,0,1.2-0.1c0.3-0.1,0.6-0.2,0.8-0.5c0.2-0.2,0.3-0.5,0.4-0.8c0.1-0.3,0.1-0.7,0.1-1V212
	c0-0.4,0-0.7-0.1-1c0-0.3-0.1-0.5-0.3-0.7c-0.2-0.2-0.4-0.3-0.8-0.4C268.5,209.8,268.2,209.7,267.7,209.7z"/>
<polygon points="282.7,208.5 284.1,208.5 284.1,214 285.3,214.1 290.5,208.5 292.4,208.5 286.6,214.6 293.1,221.2 291.1,221.2 
	285.3,215.3 284.1,215.3 284.1,221.2 282.7,221.2 "/>
<g>
	<defs>
		<path id="SVGID_1_" d="M193,93c-2.4,5.2-5.5,9.6-9.3,13.3c-5.7,5.6-12.6,9.5-19.7,11.2c-0.8,0.2-1.6,0.4-2.4,0.5
			c3.7,1.6,7.9,2.5,12.6,2.6v0l0.3,0l0.3,0v0c23.9-0.4,35.3-23.4,33.1-36.9c-1.1-5.4-2.8-10.3-4.7-14.8c-0.7,6.4-2.7,12.6-5.9,18
			C196.1,89.1,194.6,91.1,193,93 M182.5,101c-5.4,2.6-11.6,3.6-18.4,2.4c-7-1.2-14.7-4.7-22.7-11.2c1.4,7.7,6,16.2,13.5,21.9
			c2.7,0,5.4-0.3,8.1-1c6.4-1.6,12.5-5,17.6-10C181.3,102.4,181.9,101.7,182.5,101z M186.4,44.1c-4-4.5-8.1-8.5-11.9-12.4
			c-12.3,12.7-28.2,27.2-33.4,52.1c-0.1,0.7-0.2,1.4-0.2,2.1c8.3,7.5,16.1,11.5,23.2,12.9c-8.2-5.8-9.2-16.5-5.1-23.3l15.6-22.2
			l15.6,22.2c1,1.6,1.6,3.4,2,5.3C194.1,70.5,192.7,58,186.4,44.1z"/>
	</defs>
	<clipPath id="SVGID_2_">
		<use xlink:href="#SVGID_1_"  style="overflow:visible;"/>
	</clipPath>
	<linearGradient id="SVGID_3_" gradientUnits="userSpaceOnUse" x1="140.9337" y1="76.1441" x2="208.2337" y2="76.1441">
		<stop  offset="0" style="stop-color:#01A0C6"/>
		<stop  offset="1" style="stop-color:#0C0956"/>
	</linearGradient>
	<rect x="140.9" y="31.7" class="st0" width="69.2" height="88.9"/>
</g>
<path d="M303.5,136.1h1.6c0.7,0,1.2-0.1,1.5-0.3c0.3-0.2,0.4-0.5,0.4-0.9c0-0.2-0.1-0.4-0.2-0.6c-0.1-0.2-0.3-0.3-0.5-0.4
	c-0.2-0.1-0.7-0.1-1.3-0.1h-1.5V136.1z M302.3,140.5v-7.9h2.7c0.9,0,1.6,0.1,2,0.2c0.4,0.1,0.7,0.4,1,0.8c0.2,0.4,0.4,0.7,0.4,1.2
	c0,0.6-0.2,1.1-0.6,1.5c-0.4,0.4-1,0.7-1.6,0.7c0.3,0.1,0.5,0.3,0.7,0.4c0.3,0.3,0.7,0.8,1.2,1.6l1,1.5h-1.6l-0.7-1.2
	c-0.6-1-1-1.6-1.3-1.8c-0.2-0.2-0.6-0.3-1-0.3h-0.8v3.4H302.3z M305.5,130.3c-1,0-2,0.3-3,0.8c-1,0.5-1.7,1.3-2.3,2.3
	c-0.6,1-0.8,2-0.8,3.1c0,1.1,0.3,2.1,0.8,3c0.5,1,1.3,1.7,2.3,2.3c1,0.5,2,0.8,3.1,0.8c1.1,0,2.1-0.3,3.1-0.8c1-0.5,1.7-1.3,2.3-2.3
	c0.5-1,0.8-2,0.8-3c0-1.1-0.3-2.1-0.8-3.1c-0.5-1-1.3-1.7-2.3-2.3C307.5,130.6,306.5,130.3,305.5,130.3z M305.5,129.1
	c1.2,0,2.4,0.3,3.6,1c1.2,0.6,2.1,1.5,2.7,2.7c0.7,1.2,1,2.4,1,3.7c0,1.3-0.3,2.5-1,3.7c-0.6,1.2-1.6,2.1-2.7,2.7
	c-1.2,0.6-2.4,1-3.7,1c-1.3,0-2.5-0.3-3.7-1c-1.2-0.6-2.1-1.6-2.7-2.7c-0.6-1.2-1-2.4-1-3.7c0-1.3,0.3-2.5,1-3.7
	c0.7-1.2,1.6-2.1,2.8-2.7C303.1,129.4,304.3,129.1,305.5,129.1z"/>
</svg>
